<?xml version="1.0" standalone="no"?>
<!DOCTYPE svg PUBLIC "-//W3C//DTD SVG 20010904//EN"
 "http://www.w3.org/TR/2001/REC-SVG-20010904/DTD/svg10.dtd">
<svg version="1.0" xmlns="http://www.w3.org/2000/svg"
 width="320.000000pt" height="320.000000pt" viewBox="0 0 320.000000 320.000000"
 preserveAspectRatio="xMidYMid meet">
<metadata>
Created by potrace 1.14, written by Peter Selinger 2001-2017
</metadata>
<g transform="translate(0.000000,320.000000) scale(0.100000,-0.100000)"
fill="#000000" stroke="none">
<path d="M2762 3167 c-47 -14 -71 -26 -68 -34 12 -30 219 -335 231 -339 19 -8
72 22 91 51 20 31 16 64 -26 201 -46 151 -74 165 -228 121z"/>
<path d="M2420 3063 c-47 -13 -89 -28 -94 -33 -8 -8 194 -332 214 -345 9 -6
182 44 194 56 6 5 2 17 -11 31 -11 13 -64 89 -118 171 -53 81 -98 147 -99 146
0 -1 -39 -12 -86 -26z"/>
<path d="M2027 2952 c-60 -18 -86 -30 -83 -39 4 -10 212 -331 221 -341 2 -2
48 10 103 27 l100 31 -117 175 c-64 96 -120 174 -126 173 -5 0 -50 -12 -98
-26z"/>
<path d="M1651 2845 c-46 -14 -85 -26 -88 -29 -2 -2 48 -83 112 -179 l116
-176 42 13 c79 25 152 49 156 53 2 1 -3 11 -11 20 -9 10 -61 87 -117 171 -56
83 -107 152 -114 151 -7 0 -50 -11 -96 -24z"/>
<path d="M1277 2733 c-64 -20 -77 -28 -72 -41 3 -9 52 -86 108 -170 l102 -153
40 6 c22 3 68 15 103 26 57 19 62 23 49 38 -8 9 -60 85 -116 169 -69 104 -106
152 -118 151 -10 -1 -53 -12 -96 -26z"/>
<path d="M923 2632 c-45 -15 -85 -30 -88 -34 -12 -11 216 -340 231 -334 8 3
52 17 100 31 79 25 84 28 72 45 -7 10 -60 86 -117 169 -58 83 -107 151 -110
150 -3 -1 -43 -13 -88 -27z"/>
<path d="M533 2518 c-92 -31 -116 -48 -68 -48 27 0 47 -19 165 -158 l70 -82
-7 -136 c-8 -175 2 -174 77 4 41 97 60 132 73 132 26 0 21 13 -35 92 -29 41
-75 108 -103 151 -27 42 -57 77 -65 76 -8 0 -57 -14 -107 -31z"/>
<path d="M234 2420 c-77 -11 -123 -29 -136 -53 -15 -29 -12 -425 4 -444 8 -10
66 -13 259 -13 l248 0 18 33 c13 23 18 63 21 148 l4 117 -71 91 c-103 129
-106 131 -210 130 -47 -1 -109 -5 -137 -9z m194 -196 c52 -59 15 -144 -63
-144 -96 0 -127 128 -41 166 40 17 75 10 104 -22z"/>
<path d="M946 2064 c-38 -91 -76 -174 -85 -185 -16 -20 -26 -20 -359 -17
l-343 3 3 -770 3 -770 32 -67 c17 -37 53 -90 79 -118 54 -58 160 -115 243
-130 79 -15 2144 -14 2213 1 146 31 274 141 329 284 l23 60 -3 761 c-3 718 -2
763 15 795 23 43 32 224 14 268 -11 27 -46 51 -75 51 -18 0 -26 -14 -106 -205
l-68 -160 -90 -3 c-50 -1 -91 1 -91 6 0 11 26 89 39 117 6 11 24 54 41 95 18
41 38 88 46 104 8 16 14 33 14 38 0 4 -46 8 -103 8 l-103 0 -26 -62 c-15 -35
-49 -117 -77 -183 l-50 -120 -90 -3 c-59 -2 -91 1 -91 8 0 15 61 169 104 264
20 43 36 82 36 87 0 5 -46 9 -103 9 l-103 0 -46 -112 c-26 -62 -59 -143 -74
-180 -19 -46 -33 -68 -48 -72 -23 -6 -166 -8 -166 -2 0 14 47 138 105 276 19
46 35 86 35 87 0 2 -47 3 -105 3 l-104 0 -21 -47 c-12 -27 -44 -105 -71 -175
-28 -70 -54 -130 -58 -132 -4 -3 -46 -8 -94 -12 -63 -5 -87 -4 -87 5 0 15 60
167 104 265 20 43 36 82 36 87 0 5 -47 9 -103 9 l-104 0 -15 -37 c-9 -21 -39
-94 -67 -162 -74 -180 -65 -171 -166 -171 -47 0 -85 3 -85 8 0 4 9 32 21 62
12 30 27 72 35 93 8 20 18 45 23 55 18 31 61 134 61 143 0 5 -46 9 -103 9
l-103 0 -68 -166z m1124 -404 c0 -5 23 -10 50 -10 28 0 58 -4 68 -9 9 -5 43
-22 75 -38 53 -25 137 -96 137 -114 0 -4 6 -14 14 -21 24 -24 46 -76 52 -122
6 -42 2 -53 -50 -143 -63 -108 -142 -237 -166 -270 -32 -44 -498 -525 -553
-570 -15 -13 -27 -30 -27 -38 0 -8 -7 -15 -16 -15 -13 0 -51 -28 -42 -31 14
-7 78 -4 78 2 0 14 28 11 32 -3 3 -9 15 -7 42 6 51 24 56 14 9 -20 -21 -16
-39 -32 -41 -36 -7 -17 -85 -8 -101 11 -9 10 -25 21 -37 25 -115 36 -644 542
-644 616 0 6 -4 10 -8 10 -5 0 -17 19 -27 43 -9 23 -22 51 -27 61 -6 11 -13
46 -16 78 -2 32 -9 61 -13 64 -12 7 -12 101 0 108 4 3 11 36 14 72 4 37 10 70
14 73 5 3 14 17 20 31 30 67 128 163 178 176 14 3 25 10 25 15 0 4 16 11 35
15 19 3 38 10 41 15 7 12 221 11 229 -1 3 -5 15 -10 27 -10 21 0 80 -29 86
-42 2 -5 9 -8 16 -8 18 0 126 -115 126 -134 0 -21 19 -20 28 2 16 39 57 90 96
118 49 35 105 63 128 64 9 0 20 5 23 10 3 6 26 10 51 10 24 0 44 5 44 10 0 6
7 10 15 10 8 0 15 -4 15 -10z m375 -707 c-14 -28 -45 -63 -45 -50 0 2 9 26 21
52 13 29 24 44 30 38 6 -6 3 -21 -6 -40z m-579 -618 c-16 -14 -34 -25 -40 -25
-13 0 45 49 59 50 6 0 -3 -11 -19 -25z"/>
</g>
</svg>
